<?xml version="1.0" encoding="UTF-8" standalone="no"?>
<!-- Created with Inkscape (http://www.inkscape.org/) -->

<svg
   xmlns:dc="http://purl.org/dc/elements/1.1/"
   xmlns:cc="http://creativecommons.org/ns#"
   xmlns:rdf="http://www.w3.org/1999/02/22-rdf-syntax-ns#"
   xmlns:svg="http://www.w3.org/2000/svg"
   xmlns="http://www.w3.org/2000/svg"
   xmlns:sodipodi="http://sodipodi.sourceforge.net/DTD/sodipodi-0.dtd"
   xmlns:inkscape="http://www.inkscape.org/namespaces/inkscape"
   width="500px"
   height="500px"
   viewBox="0 0 500 500"
   version="1.1"
   id="SVGRoot"
   inkscape:version="0.92.1 r15371"
   sodipodi:docname="blogo.svg">
  <sodipodi:namedview
     id="base"
     pagecolor="#ffffff"
     bordercolor="#666666"
     borderopacity="1.0"
     inkscape:pageopacity="0.0"
     inkscape:pageshadow="2"
     inkscape:zoom="0.98994949"
     inkscape:cx="270.25946"
     inkscape:cy="230.64392"
     inkscape:document-units="px"
     inkscape:current-layer="layer1"
     showgrid="false"
     inkscape:window-width="1680"
     inkscape:window-height="997"
     inkscape:window-x="1272"
     inkscape:window-y="1018"
     inkscape:window-maximized="1" />
  <defs
     id="defs5608" />
  <metadata
     id="metadata5611">
    <rdf:RDF>
      <cc:Work
         rdf:about="">
        <dc:format>image/svg+xml</dc:format>
        <dc:type
           rdf:resource="http://purl.org/dc/dcmitype/StillImage" />
        <dc:title />
      </cc:Work>
    </rdf:RDF>
  </metadata>
  <g
     id="layer1"
     inkscape:groupmode="layer"
     inkscape:label="Layer 1">
    <path
       inkscape:connector-curvature="0"
       style="fill:none;stroke:#ffffff;stroke-width:2.12683249;stroke-opacity:1"
       d="m 249.75488,496.43413 c 135.5333,0 246.04544,-110.51215 246.04544,-246.04545 C 495.80032,114.85537 385.28818,4.3432428 249.75488,4.3432428 114.2215,4.3432428 3.7094877,114.85537 3.7094877,250.38868 c 0,135.5333 110.5120123,246.04545 246.0453923,246.04545 z"
       id="path4487" />
    <path
       inkscape:connector-curvature="0"
       d="m 299.79801,175.32405 -1.04421,1.04419 -49.0005,79.23479 -49.00047,-79.23479 v -1.04419 h -20.85144 v 149.08667 h 20.85144 V 212.85636 l 49.00047,79.2348 49.0005,-79.2348 v 111.55436 h 20.85143 V 175.32405 h -19.8088"
       id="path4491"
       style="stroke-width:10.42564869" />
    <path
       inkscape:connector-curvature="0"
       d="m 299.79801,175.32405 -1.04421,1.04419 -49.0005,79.23479 -49.00047,-79.23479 v -1.04419 h -20.85144 v 149.08667 h 20.85144 V 212.85636 l 49.00047,79.2348 49.0005,-79.2348 v 111.55436 h 20.85143 V 175.32405 Z"
       id="path4493"
       style="fill:#ffffff;fill-opacity:1;stroke:#ffffff;stroke-width:10.08743;stroke-miterlimit:4;stroke-dasharray:none;stroke-opacity:1" />
    <path
       inkscape:connector-curvature="0"
       d="m 195.54167,462.0293 9.38287,-9.38289 4.17052,12.51079 3.12867,1.04419 5.21277,-20.85141 -3.12868,-1.0442 -4.17053,15.63867 -4.17013,-12.51078 -9.38288,9.38289 4.17013,-15.6383 h -3.12869 l -5.21275,20.85104 z m -45.87297,-16.6809 9.38308,-5.21277 1.04264,10.42554 3.12749,1.04419 -1.04264,-14.59605 4.17027,-8.34026 -2.08526,-1.04419 -5.2128,8.34025 -12.51078,7.29803 z m -47.95799,-33.36221 15.6385,-14.59605 -4.1703,-4.17011 c -1.04261,-1.04422 -2.08526,-2.08447 -3.12749,-2.08447 -1.04263,-1.04421 -3.12752,-1.04421 -4.17025,-1.04421 -1.04263,0 -3.12751,0 -4.17025,1.04421 -1.04262,0 -2.085242,1.0442 -3.127499,2.08447 -1.042626,1.04419 -2.085251,2.08448 -2.085251,3.12869 -1.042626,1.04419 -1.042626,3.12868 -1.042626,4.1701 0,1.0442 0,3.1287 1.042626,4.17053 0,1.04419 1.042625,2.08447 2.085251,3.12868 z m 11.4682,-14.59605 -11.4682,10.42594 -2.085249,-2.08449 c -1.042623,-1.04421 -1.042623,-2.08446 -2.085247,-3.1287 v -3.12865 c 0,-1.04421 0,-2.08448 1.042624,-3.12869 0,-1.0442 1.042623,-2.08446 2.085252,-2.08446 1.04262,-1.04421 2.08528,-1.04421 3.1275,-2.08448 h 3.1275 c 1.04264,0 2.08526,0 3.12749,1.0442 1.04264,0 2.08526,1.04421 2.08526,2.08449 z m -47.957957,-28.14904 22.936404,-2.08448 -1.042626,-3.12869 -6.255401,1.04423 -5.212824,-9.38332 4.170287,-5.21273 -1.042643,-3.12869 -14.595867,18.76617 z m 3.127481,-3.12868 5.212843,-7.29804 3.12751,6.2554 z m -2.085252,-41.70249 -1.042625,-3.12867 -19.808597,6.25539 1.040257,3.12869 z m -12.510897,-33.36219 -18.766158,2.08447 v 3.12868 L 55.837535,293.13221 54.793333,279.5788 H 51.664668 Z M 30.815998,239.962 l 8.340629,6.2554 -9.383277,5.21272 v 3.1287 l 12.510782,-7.29801 9.383276,1.04417 v -3.12866 l -9.383276,-1.04421 -11.468134,-8.34025 z m 21.893664,-65.6814 -1.040281,1.04027 h -2.084459 c -1.044206,0 -1.044206,-1.04027 -2.084486,-2.08447 v -3.12868 c 1.044205,-1.04418 1.044205,-2.08447 2.084486,-2.08447 1.044201,0 2.084459,-1.04421 3.128663,0 l 1.044228,-2.08447 h -2.084486 c -1.044204,0 -1.044204,0 -2.084484,1.04421 -1.044202,0 -1.044202,1.04421 -2.08446,1.04421 -1.044204,1.0442 -1.044204,1.0442 -1.044204,2.08446 -1.040281,0 -2.084485,1.0442 -2.084485,2.08448 v 2.08446 c 0,1.04027 1.040281,1.04027 1.040281,2.08448 1.044204,1.0442 1.044204,1.0442 2.084461,1.0442 1.044205,0 2.084486,1.04421 2.084486,0 1.044201,0 1.044201,0 2.084459,-1.0442 1.040281,0 1.040281,-1.04421 2.084484,-2.08448 l 2.08446,-2.08446 c 2.084485,-3.12869 4.17013,-4.17052 6.255403,-3.12869 l 1.042625,1.04421 c 0,0 0,1.0442 1.042624,1.0442 v 2.08448 c 0,1.04419 0,1.04419 -1.042624,2.08448 -1.042625,1.04421 -1.042625,2.08446 -2.085253,3.12867 -1.044224,2.08448 -2.084482,2.08448 -3.128686,2.08448 l -1.044204,2.08447 h 2.084462 c 1.044204,0 2.084482,0 2.084482,-1.04421 1.044205,0 1.044205,-1.04026 2.085252,-2.08446 2.085272,1.0442 2.085272,0 3.127503,-1.04423 0,-1.0442 1.042626,-2.08446 1.042626,-3.12867 v -3.12868 c 0,-1.04421 -1.042626,-2.08447 -1.042626,-2.08447 0,-1.04418 -1.042626,-1.04418 -2.085251,-2.08447 h -4.170407 c -1.04028,0 -2.084484,1.04029 -2.084484,1.04029 -2.084459,1.04418 -3.128663,2.08444 -4.170524,4.17048 z m 11.468388,-40.66022 16.681051,12.51078 2.085269,-2.08449 -5.212845,-4.17011 3.127502,-4.17016 c 1.042623,-1.04419 1.042623,-2.08445 1.042623,-3.12864 v -3.1287 c 0,-1.04421 0,-2.08448 -1.042623,-3.12869 0,-1.0442 -1.042624,-2.08446 -2.085275,-2.08446 -1.042624,-1.04419 -2.085248,-1.04419 -3.127476,-1.04419 h -3.127502 c -1.04263,0 -2.085274,0 -3.127506,1.04419 -1.042625,0 -2.085252,1.0442 -2.085252,2.08446 z m 10.42567,5.21275 -7.29796,-5.21275 4.170269,-5.21278 1.042624,-1.04419 c 0,0 1.042624,0 2.085248,-1.04421 h 2.085276 c 1.042625,0 1.042625,0 2.085249,1.04421 l 1.042624,1.04419 c 0,0 0,1.04421 1.042651,2.0845 1.042624,1.0442 0,1.0442 0,2.08445 0,1.0442 0,1.0442 -1.042651,2.08448 z m 23.979007,-46.915226 7.297923,21.893666 2.08526,-2.08448 -2.08526,-6.25538 7.29795,-6.25538 6.25539,3.12867 2.08525,-2.08447 -20.85128,-10.425527 z m 4.170243,2.084476 8.34054,4.17053 -6.25542,4.17011 z M 146.5407,78.364099 h -3.12752 c -1.04261,0 -2.08523,-1.044203 -3.12749,-2.084467 -1.04262,-1.044204 -2.08525,-2.084468 -2.08525,-3.128683 0,-1.044202 -1.04263,-2.084467 -1.04263,-3.128681 v -3.128682 c 1.04263,-1.044203 1.04263,-2.084469 2.08526,-3.128672 1.04262,-1.044213 2.08526,-1.044213 3.1275,-2.084475 1.04261,-1.044207 3.12749,-1.044207 4.17025,-1.044207 1.04262,0 3.12748,0 4.17028,1.044207 l 1.04264,-2.084473 c -2.08526,-1.044208 -3.12752,-1.044208 -5.21286,-1.044208 -2.08525,0 -4.17024,0 -5.21283,1.044208 l -3.1275,3.128685 c -1.04263,1.044202 -2.08524,2.084466 -2.08524,4.170512 0,1.044215 -1.04267,3.128682 -1.04267,4.170132 0,1.044203 0,3.128682 1.04267,4.170133 0,1.044204 1.04261,2.084468 2.08524,3.128671 1.04262,1.044215 2.08529,2.084479 4.17028,2.084479 1.04264,0 3.12751,1.044203 4.17027,1.044203 1.04261,0 3.12749,0 4.17022,-1.044203 1.04264,0 2.08527,-1.044203 2.08527,-2.084479 l 2.08526,-2.084467 c 1.04263,-1.044204 1.04263,-2.084468 1.04263,-2.084468 0,-1.040265 1.04264,-2.084479 1.04264,-3.128682 h -3.12749 c 0,1.044203 -1.04265,3.128682 -1.04265,4.170122 l -3.12828,3.128681 c -1.04263,-1.040265 -2.08526,0 -3.12749,0 z m 46.91528,-36.489699 -1.0442,-3.12868 -13.553,3.12868 5.21275,20.851034 13.5534,-3.128679 -1.04421,-3.128682 -11.46851,3.128682 -1.04424,-6.255388 10.42593,-2.084473 -1.0442,-3.128682 -10.42592,2.084472 -1.04421,-6.255386 z m 58.38378,0 c -1.04421,0 -2.08448,1.044202 -2.08448,2.084474 0,1.044202 1.04418,2.084466 2.08448,2.084466 1.04419,0 2.08445,-1.0442 2.08445,-2.084466 0,-1.044209 -1.04421,-2.084474 -2.08445,-2.084474 z m 65.68177,0 -10.42589,8.340253 -3.12869,-13.553009 -3.12869,-1.04421 -6.25538,20.851427 3.12865,1.040267 5.2128,-14.595643 2.08446,12.510777 10.42592,-8.340649 -5.21278,14.596038 3.12869,1.044204 7.29763,-19.808401 z m 43.7877,20.851034 -10.42588,5.213149 V 56.470439 l -3.1287,-2.084473 v 14.596037 l -4.17013,7.29802 3.12869,2.084479 5.21277,-7.297629 13.55341,-6.255394 z m 53.17063,41.702856 -17.72355,12.51079 3.12869,5.21277 3.12869,3.12866 c 1.0442,1.04418 2.08446,1.04418 4.17015,1.04418 h 4.17051 c 1.04421,0 3.12866,-1.04418 4.17012,-2.08444 l 3.12866,-3.12868 c 1.04421,-1.04421 1.04421,-2.08447 1.04421,-4.17013 v -4.17052 c 0,-1.04028 -1.04421,-3.12868 -2.08446,-4.17014 z m -13.55341,13.5534 12.51078,-9.38326 2.08449,3.12866 c 1.0442,1.0403 1.0442,2.08448 1.0442,3.12869 v 3.12868 c 0,1.04421 0,2.08449 -1.0442,3.12869 -1.0442,1.0442 -1.0442,2.08447 -2.08449,2.08447 -1.04419,1.0442 -2.08446,1.0442 -3.12865,1.0442 h -3.1287 c -1.04421,0 -2.08449,0 -3.12868,-1.0442 -1.0442,-1.0442 -2.08447,-1.0442 -2.08447,-2.08447 z m 43.78773,32.31921 h -22.93631 l 1.04421,3.12869 h 6.25541 l 4.17012,8.34061 -4.17012,5.21279 1.04421,3.12867 15.63827,-16.68093 z m -3.12868,3.12869 -6.2554,6.25537 -3.12866,-6.25537 z m -2.08448,41.70243 1.04419,3.12869 20.85145,-4.17053 -1.04419,-3.12869 z m 9.38328,34.40485 18.76617,-1.0442 v -3.12869 l -20.85141,1.04028 v 13.55341 h 3.12869 z m 17.72355,52.12798 -8.34063,-7.29762 10.42588,-4.17053 1.04421,-3.12869 -13.55341,6.25538 -9.38327,-1.04419 v 3.12868 l 9.38327,1.04419 10.42551,9.3833 z m -28.14945,63.59651 1.04418,-1.04418 h 2.0845 c 1.0442,0 1.0442,1.04418 1.0442,2.08446 0,1.04422 0,2.08448 -1.0442,3.12868 -1.0442,1.0442 -1.0442,2.08448 -2.0845,2.08448 h -3.12865 l -1.04423,2.08446 h 4.17052 c 1.04423,0 1.04423,-1.04419 2.08449,-1.04419 l 2.08446,-2.08446 c 1.04423,-1.04424 1.04423,-2.08449 1.04423,-3.12869 v -3.1287 c 0,-1.0442 0,-1.0442 -1.04423,-2.08446 0,-1.04421 -1.0442,-1.04421 -2.08446,-2.08449 -1.04421,0 -2.08449,-1.04418 -2.08449,-1.04418 -1.04419,0 -1.04419,0 -2.08446,1.04418 -1.0442,0 -1.0442,1.04422 -2.08448,1.04422 l -2.08445,2.08447 c -1.04422,4.17053 -3.1287,5.21275 -4.17053,4.17053 l -1.04422,-1.04421 v -3.12868 c 0,-1.04419 0,-1.04419 1.04422,-2.08449 1.04421,-1.04421 1.04421,-2.08445 2.08445,-2.08445 1.04421,0 2.0845,-1.0442 3.1287,0 l 1.04419,-2.08449 h -2.08445 c -1.04423,0 -2.08449,0 -2.08449,1.04423 -1.04419,0 -1.04419,1.04421 -2.08445,1.04421 l -2.08448,2.08446 c -1.04421,1.0442 -1.04421,2.08448 -1.04421,3.12867 v 3.12868 c 0,1.04424 0,2.08447 1.04421,2.08447 0,1.04422 1.04419,1.04422 2.08448,2.08449 0,0 1.0442,0 2.08445,1.04421 h 2.08449 c 1.0442,0 2.08445,0 3.12866,-1.04421 1.04421,-1.04422 2.08449,-1.04422 3.1287,-2.08449 -2.08449,-3.12868 -1.04421,-4.17053 -1.04421,-4.17053 z m -14.59563,39.61761 -15.63869,-14.59603 -2.08445,2.08446 5.21273,4.17053 -4.17011,4.17011 c -1.0442,1.04421 -1.0442,2.08449 -1.0442,2.08449 v 3.12868 c 0,1.04421 0,2.08447 1.0442,3.12867 0,1.04421 1.0442,2.08449 2.08447,2.08449 1.04419,1.04419 2.08448,1.04419 2.08448,1.04419 h 3.12866 c 1.04423,0 2.08447,0 3.12869,-1.04419 1.0442,0 2.08448,-1.04421 2.08448,-2.08449 z m -11.46817,-6.25539 6.25538,6.25539 -3.12867,4.17013 -1.0442,1.04421 h -4.17053 c -1.0442,0 -1.0442,-1.04421 -1.0442,-1.04421 l -1.04423,-1.04421 v -4.17012 c 0,-1.04421 0,-1.04421 1.04423,-1.04421 z m -28.14945,44.83036 -5.21276,-22.93669 -2.08446,2.08448 1.04419,6.25539 -8.34065,5.21315 -5.21275,-3.12867 -2.08449,2.08447 19.80882,12.51078 z m -3.12867,-3.12866 -7.29805,-5.2128 6.25543,-4.17049 z m -44.83036,11.46813 c 1.04421,0 2.0845,0 3.12867,1.04421 1.0442,0 2.08448,1.04423 3.12868,2.08448 1.04421,1.04421 1.04421,2.08448 2.08446,3.1287 0,1.04418 1.04421,2.08446 1.04421,3.12866 0,1.0442 0,2.08447 -1.04421,3.12867 0,1.04421 -1.04417,2.08448 -2.08446,3.12868 -1.0442,1.0442 -2.08448,1.0442 -3.12868,2.08449 -1.04417,1.04419 -3.12867,1.04419 -4.17012,0 -1.04421,0 -3.12868,-1.04421 -4.17012,-1.04421 l -2.08448,2.08447 c 1.04421,1.0442 3.12867,2.08447 5.21276,2.08447 2.08447,0 4.17012,0 5.21275,-1.0442 1.0442,-1.04421 3.12869,-1.04421 4.17014,-2.0845 1.04421,-1.0442 2.08448,-2.08445 2.08448,-3.12864 1.04421,-3.1287 1.04421,-4.17016 1.04421,-5.21278 0,-1.04423 0,-3.12868 -1.04421,-4.17053 -1.04422,-1.04422 -1.04422,-3.12868 -2.08448,-4.17011 -1.04422,-1.0442 -2.08448,-2.08448 -3.12869,-2.08448 -1.0442,-1.04421 -3.12868,-1.04421 -4.17012,-1.04421 -1.04421,0 -3.12869,0 -4.17013,1.04421 -1.04421,0 -2.08447,1.0442 -2.08447,1.0442 l -2.08448,2.08449 c -1.04421,1.0442 -1.04421,1.0442 -1.04421,2.08446 0,1.0442 -1.04421,2.08447 -1.04421,2.08447 l 3.1287,1.04422 c 0,-1.04422 1.0442,-2.08449 2.08446,-4.17015 1.04421,-1.04419 2.08448,-2.08448 3.12869,-2.08448 0,-1.04421 1.04419,-1.04421 2.08447,-1.04421 z m -51.08571,31.27695 v 3.12868 l 14.59602,-2.08446 -3.12869,-20.85144 -14.59602,2.08446 v 3.1287 l 11.46853,-2.08446 1.0442,6.25536 -10.42591,1.04421 v 3.1287 l 10.42591,-1.04422 1.0442,6.25539 z m -31.277,-5.21276 c 1.0442,0 2.0845,-1.0442 2.0845,-2.08446 0,-1.04421 -1.04421,-2.08448 -2.0845,-2.08448 -1.04419,0 -2.08445,1.0442 -2.08445,2.08448 0,1.04422 1.0442,2.08446 2.08445,2.08446 z"
       id="path4495"
       style="fill:#ffffff;fill-opacity:1;stroke-width:10.42564869" />
  </g>
</svg>
