<svg xmlns="http://www.w3.org/2000/svg" viewBox="0 0 375 47.4"><path fill="#FAD6D7" d="M23.7 47.3c13 0 23.6-10.6 23.6-23.6C47.3 10.7 36.7.1 23.7.1 10.7.1.1 10.7.1 23.7c0 13 10.6 23.6 23.6 23.6z"/><path fill="none" stroke="#000" stroke-width=".204" d="M23.7 47.3c13 0 23.6-10.6 23.6-23.6C47.3 10.7 36.7.1 23.7.1 10.7.1.1 10.7.1 23.7c0 13 10.6 23.6 23.6 23.6z"/><path fill="#FFF" d="M250.4 23.9c-1 0-1.8.8-1.8 1.9 0 1.1.8 2 1.8 2s1.8-.8 1.8-2c0-1.1-.8-1.9-1.8-1.9zm19.9-2.3c-.5-.2-.9-.4-1.2-.6-.3-.2-.5-.4-.6-.7-.1-.2-.2-.5-.2-.8 0-.8.3-1.4.9-1.9.6-.5 1.5-.7 2.6-.7 1 0 1.9.3 2.5.8.6.5 1.1 1.2 1.2 2l2.1-.5c-.1-.7-.3-1.3-.6-1.8-.3-.6-.7-1-1.3-1.4-.5-.4-1.1-.7-1.8-1-.7-.2-1.4-.3-2.2-.3-.9 0-1.7.1-2.4.4-.7.2-1.4.6-1.9 1s-.9 1-1.2 1.6-.4 1.3-.4 2c0 .8.2 1.5.5 2.1.4.6.8 1 1.4 1.4.6.4 1.2.6 1.9.9l2.1.6c2.9.7 4.3 1.8 4.3 3.4 0 .4-.1.8-.3 1.1-.2.3-.5.6-.9.9-.4.3-.8.5-1.3.6-.5.2-1 .2-1.6.2-1.1 0-2-.3-2.8-.8-.8-.5-1.3-1.2-1.5-1.9l-2.1.4c.1.6.3 1.3.7 1.8.4.6.8 1 1.4 1.5.6.4 1.2.7 1.9 1 .7.2 1.5.3 2.3.3.9 0 1.7-.1 2.5-.4.8-.3 1.4-.6 2-1.1.6-.5 1-1 1.4-1.6.3-.6.5-1.3.5-2 0-.5-.1-1-.2-1.5-.2-.5-.5-1-.9-1.5-.5-.5-1.1-1-1.9-1.4-.8-.5-1.8-.8-3.1-1.1-.6-.6-1.3-.8-1.8-1zm19.2-6.5v17.5h2.3v-5.3h4.5c.8 0 1.6-.2 2.4-.5.7-.3 1.4-.7 1.9-1.3.5-.5 1-1.2 1.3-1.9.3-.7.5-1.5.5-2.4 0-.8-.2-1.6-.5-2.4-.3-.7-.8-1.4-1.3-1.9s-1.2-1-1.9-1.3c-.7-.3-1.5-.5-2.4-.5h-6.8zm2.4 9.9v-7.6h4.5c.5 0 1 .1 1.4.3.5.2.8.5 1.2.8.3.3.6.7.8 1.2.2.5.3.9.3 1.5 0 .5-.1 1-.3 1.5-.2.5-.5.9-.8 1.2-.3.3-.7.6-1.2.8-.4.2-.9.3-1.4.3h-4.5zm25.6-9.9l-7.4 17.5h2.5l2.1-5h7.8l2.1 5h2.5l-7.4-17.5h-2.2zm1.2 3.2l2.9 6.9h-5.9l3-6.9zM342 30.2c-.8-.4-1.5-.8-2.2-1.5-.6-.6-1.1-1.4-1.5-2.2-.4-.8-.5-1.7-.5-2.7 0-.9.2-1.8.5-2.7.4-.8.8-1.6 1.5-2.2.6-.6 1.3-1.1 2.2-1.5.8-.4 1.7-.5 2.7-.5 1.2 0 2.3.3 3.3.9 1 .6 1.8 1.3 2.4 2.3l1.9-1.3c-.8-1.3-1.9-2.3-3.2-3-1.3-.8-2.8-1.1-4.4-1.1-1.3 0-2.5.2-3.6.7-1.1.5-2.1 1.1-2.9 2-.8.8-1.5 1.8-2 2.9-.5 1.1-.7 2.3-.7 3.6 0 1.3.2 2.5.7 3.6.5 1.1 1.1 2.1 2 2.9.8.8 1.8 1.5 2.9 2 1.1.5 2.3.7 3.6.7.8 0 1.6-.1 2.3-.3.8-.2 1.5-.5 2.1-.8.7-.4 1.3-.8 1.8-1.3s1-1.1 1.4-1.7l-1.9-1.2c-.6.9-1.4 1.7-2.4 2.3-1 .6-2.1.9-3.3.9-1-.3-1.9-.5-2.7-.8zm33-12.8v-2.3h-11.7v17.5H375v-2.3h-9.3V25h8.6v-2.3h-8.6v-5.3h9.3zm-230.3-2.3v17.5h5c1.2 0 2.3-.2 3.4-.7 1.1-.5 2-1.1 2.8-1.9.8-.8 1.4-1.7 1.9-2.8.5-1.1.7-2.2.7-3.4s-.2-2.3-.7-3.4c-.5-1.1-1.1-2-1.9-2.8-.8-.8-1.7-1.4-2.8-1.9-1.1-.5-2.2-.7-3.4-.7h-5v.1zm2.4 15.2V17.4h2.6c.9 0 1.7.2 2.5.5s1.4.8 2 1.4c.6.6 1 1.3 1.4 2 .3.8.5 1.6.5 2.5 0 .9-.2 1.7-.5 2.5s-.8 1.5-1.4 2c-.6.6-1.2 1-2 1.4-.8.3-1.6.5-2.5.5h-2.6v.1zM175 15.1l-7.4 17.5h2.5l2.1-5h7.8l2.1 5h2.5l-7.4-17.5H175zm1.2 3.2l2.9 6.9h-5.9l3-6.9zM195 32.6h2.3V15.1H195v17.5zm17.1-2.3V15.1h-2.3v17.5h11v-2.3h-8.7zm26.6-15.2l-4.8 7.6-4.8-7.6h-2.7l6.4 10v7.5h2.3v-7.5l6.4-10h-2.8zm-149 0l-5.8 9.3-5.8-9.3h-2.3v17.5h2.3V19.4l5.8 9.3 5.8-9.3v13.1h2.4V15.1h-2.4zm24.7 0l-4.8 7.6-4.8-7.6h-2.7l6.4 10v7.5h2.3v-7.5l6.4-10h-2.8zm13.2 8.8c-1 0-1.8.8-1.8 1.9 0 1.1.8 2 1.8 2s1.8-.8 1.8-2c0-1.1-.8-1.9-1.8-1.9z"/><path d="M28.5 16.5l-.1.1-4.7 7.6-4.7-7.6v-.1h-2v14.3h2V20.1l4.7 7.6 4.7-7.6v10.7h2V16.5h-1.9"/><path fill="none" stroke="#000" stroke-width=".966" d="M28.5 16.5l-.1.1-4.7 7.6-4.7-7.6v-.1h-2v14.3h2V20.1l4.7 7.6 4.7-7.6v10.7h2V16.5h-1.9z"/><path d="M18.5 44l.9-.9.4 1.2.3.1.5-2-.3-.1-.4 1.5-.4-1.2-.9.9.4-1.5h-.3l-.5 2h.3zm-4.4-1.6l.9-.5.1 1 .3.1-.1-1.4.4-.8-.2-.1-.5.8-1.2.7.3.2zm-4.6-3.2l1.5-1.4-.4-.4c-.1-.1-.2-.2-.3-.2-.1-.1-.3-.1-.4-.1-.1 0-.3 0-.4.1-.1 0-.2.1-.3.2-.1.1-.2.2-.2.3-.1.1-.1.3-.1.4 0 .1 0 .3.1.4 0 .1.1.2.2.3l.3.4zm1.1-1.4l-1.1 1-.2-.2c-.1-.1-.1-.2-.2-.3V38c0-.1 0-.2.1-.3 0-.1.1-.2.2-.2.1-.1.2-.1.3-.2h.3c.1 0 .2 0 .3.1.1 0 .2.1.2.2l.1.2zM6 35.1l2.2-.2-.1-.3-.6.1-.5-.9.4-.5-.1-.3-1.4 1.8.1.3zm.3-.3l.5-.7.3.6-.8.1zm-.2-4l-.1-.3-1.9.6.1.3 1.9-.6zm-1.2-3.2l-1.8.2v.3l2-.3-.1-1.3h-.3l.2 1.1zm-2.2-4.9l.8.6-.9.5v.3l1.2-.7.9.1v-.3l-.9-.1-1.1-.8v.4zm2.1-6.3l-.1.1h-.2c-.1 0-.1-.1-.2-.2V16c.1-.1.1-.2.2-.2s.2-.1.3 0l.1-.2h-.2c-.1 0-.1 0-.2.1-.1 0-.1.1-.2.1-.1.1-.1.1-.1.2-.1 0-.2.1-.2.2v.2c0 .1.1.1.1.2.1.1.1.1.2.1s.2.1.2 0c.1 0 .1 0 .2-.1.1 0 .1-.1.2-.2l.2-.2c.2-.3.4-.4.6-.3l.1.1s0 .1.1.1v.2c0 .1 0 .1-.1.2s-.1.2-.2.3c-.1.2-.2.2-.3.2l-.1.2h.2c.1 0 .2 0 .2-.1.1 0 .1-.1.2-.2.2.1.2 0 .3-.1 0-.1.1-.2.1-.3v-.3c0-.1-.1-.2-.1-.2 0-.1-.1-.1-.2-.2h-.4c-.1 0-.2.1-.2.1-.2.1-.3.2-.4.4l-.1.1zm1.1-3.9l1.6 1.2.2-.2-.5-.4.3-.4c.1-.1.1-.2.1-.3v-.3c0-.1 0-.2-.1-.3 0-.1-.1-.2-.2-.2-.1-.1-.2-.1-.3-.1h-.3c-.1 0-.2 0-.3.1-.1 0-.2.1-.2.2l-.3.7zm1 .5l-.7-.5.4-.5.1-.1s.1 0 .2-.1h.2c.1 0 .1 0 .2.1l.1.1s0 .1.1.2 0 .1 0 .2 0 .1-.1.2l-.5.4zm2.3-4.5l.7 2.1.2-.2-.2-.6.7-.6.6.3.2-.2-2-1-.2.2zm.4.2l.8.4-.6.4-.2-.8zm4.2-1.5h-.3c-.1 0-.2-.1-.3-.2-.1-.1-.2-.2-.2-.3 0-.1-.1-.2-.1-.3v-.3c.1-.1.1-.2.2-.3.1-.1.2-.1.3-.2.1-.1.3-.1.4-.1.1 0 .3 0 .4.1l.1-.2c-.2-.1-.3-.1-.5-.1s-.4 0-.5.1l-.3.3c-.1.1-.2.2-.2.4 0 .1-.1.3-.1.4 0 .1 0 .3.1.4 0 .1.1.2.2.3.1.1.2.2.4.2.1 0 .3.1.4.1.1 0 .3 0 .4-.1.1 0 .2-.1.2-.2l.2-.2c.1-.1.1-.2.1-.2 0-.1.1-.2.1-.3h-.3c0 .1-.1.3-.1.4l-.3.3c-.1-.1-.2 0-.3 0zm4.5-3.5l-.1-.3-1.3.3.5 2 1.3-.3-.1-.3-1.1.3-.1-.6 1-.2-.1-.3-1 .2-.1-.6 1.1-.2zm5.6 0c-.1 0-.2.1-.2.2s.1.2.2.2.2-.1.2-.2-.1-.2-.2-.2zm6.3 0l-1 .8-.3-1.3-.3-.1-.6 2 .3.1.5-1.4L29 5l1-.8-.5 1.4.3.1.7-1.9-.3-.1zm4.2 2l-1 .5V5.1l-.3-.2v1.4l-.4.7.3.2.5-.7 1.3-.6-.4-.2zm5.1 4l-1.7 1.2.3.5.3.3c.1.1.2.1.4.1h.4c.1 0 .3-.1.4-.2l.3-.3c.1-.1.1-.2.1-.4v-.4c0-.1-.1-.3-.2-.4l-.3-.4zM38.2 11l1.2-.9.2.3c.1.1.1.2.1.3v.3c0 .1 0 .2-.1.3-.1.1-.1.2-.2.2-.1.1-.2.1-.3.1h-.3c-.1 0-.2 0-.3-.1-.1-.1-.2-.1-.2-.2l-.1-.3zm4.2 3.1h-2.2l.1.3h.6l.4.8-.4.5.1.3 1.5-1.6-.1-.3zm-.3.3l-.6.6-.3-.6h.9zm-.2 4l.1.3 2-.4-.1-.3-2 .4zm.9 3.3l1.8-.1v-.3l-2 .1v1.3h.3l-.1-1zm1.7 5l-.8-.7 1-.4.1-.3-1.3.6-.9-.1v.3l.9.1 1 .9v-.4zm-2.7 6.1l.1-.1h.2c.1 0 .1.1.1.2s0 .2-.1.3c-.1.1-.1.2-.2.2h-.3l-.1.2h.4c.1 0 .1-.1.2-.1l.2-.2c.1-.1.1-.2.1-.3v-.3c0-.1 0-.1-.1-.2 0-.1-.1-.1-.2-.2-.1 0-.2-.1-.2-.1-.1 0-.1 0-.2.1-.1 0-.1.1-.2.1l-.2.2c-.1.4-.3.5-.4.4l-.1-.1v-.3c0-.1 0-.1.1-.2s.1-.2.2-.2.2-.1.3 0l.1-.2h-.2c-.1 0-.2 0-.2.1-.1 0-.1.1-.2.1l-.2.2c-.1.1-.1.2-.1.3v.3c0 .1 0 .2.1.2 0 .1.1.1.2.2 0 0 .1 0 .2.1h.2c.1 0 .2 0 .3-.1.1-.1.2-.1.3-.2-.2-.3-.1-.4-.1-.4zm-1.4 3.8l-1.5-1.4-.2.2.5.4-.4.4c-.1.1-.1.2-.1.2v.3c0 .1 0 .2.1.3 0 .1.1.2.2.2.1.1.2.1.2.1h.3c.1 0 .2 0 .3-.1.1 0 .2-.1.2-.2l.4-.4zm-1.1-.6l.6.6-.3.4-.1.1h-.4c-.1 0-.1-.1-.1-.1l-.1-.1v-.4c0-.1 0-.1.1-.1l.3-.4zm-2.7 4.3l-.5-2.2-.2.2.1.6-.8.5-.5-.3-.2.2 1.9 1.2.2-.2zm-.3-.3l-.7-.5.6-.4.1.9zM32 41.1c.1 0 .2 0 .3.1.1 0 .2.1.3.2s.1.2.2.3c0 .1.1.2.1.3 0 .1 0 .2-.1.3 0 .1-.1.2-.2.3-.1.1-.2.1-.3.2-.1.1-.3.1-.4 0-.1 0-.3-.1-.4-.1l-.2.2c.1.1.3.2.5.2s.4 0 .5-.1c.1-.1.3-.1.4-.2.1-.1.2-.2.2-.3.1-.3.1-.4.1-.5 0-.1 0-.3-.1-.4-.1-.1-.1-.3-.2-.4-.1-.1-.2-.2-.3-.2-.1-.1-.3-.1-.4-.1-.1 0-.3 0-.4.1-.1 0-.2.1-.2.1l-.2.2c-.1.1-.1.1-.1.2s-.1.2-.1.2l.3.1c0-.1.1-.2.2-.4.1-.1.2-.2.3-.2 0-.1.1-.1.2-.1zm-4.9 3v.3l1.4-.2-.3-2-1.4.2v.3l1.1-.2.1.6-1 .1v.3l1-.1.1.6-1 .1zm-3-.5c.1 0 .2-.1.2-.2s-.1-.2-.2-.2-.2.1-.2.2.1.2.2.2z"/></svg>
